<svg xmlns="http://www.w3.org/2000/svg" viewBox="0 0 470.38 332.76"><defs><style>.cls-1{fill:#d8852b;}.cls-2{fill:#ebf3ff;}.cls-3{fill:#0c66e8;}.cls-4{font-size:38px;font-family:Gotham-Ultra, Gotham;}.cls-5{letter-spacing:0em;}.cls-6{letter-spacing:-0.04em;}</style></defs><title>crechimp</title><g id="Layer_2" data-name="Layer 2"><g id="Layer_1-2" data-name="Layer 1"><circle class="cls-1" cx="304" cy="166.38" r="156.69"/><path class="cls-2" d="M304,19.38a147,147,0,1,1-147,147,147,147,0,0,1,147-147M304,0a166.42,166.42,0,0,0-64.77,319.68A166.42,166.42,0,0,0,368.77,13.08,165.41,165.41,0,0,0,304,0Z"/><path class="cls-3" d="M226.67,207.76c-4-3.53-7.92-5.52-9.47-8.67-4.22-8.61-7.44-17.72-11.06-26.62l3.12-1.69,12.91,21.6c5.23-5.93,4.44-15.34-.32-20-2.49-2.43-3.7-6.34-5-9.78-1-2.6-.42-5.91-1.75-8.21-3.15-5.4-11.76-4.92-15,.48-8.94,14.72-4.58,34.6,10.5,47.9,1.75,1.55,3.4,3.2,6,5.67-6.76,2.15-11.65.81-15.91-2.54-14.47-11.35-21.55-26.18-18.4-44.55a84.38,84.38,0,0,1,7.95-23c4.72-9.47,10.81-11.28,20.9-7.8,3.94,1.37,7.74,3.16,11.94,4.9,1.23-7.56,2.06-14.41,3.52-21.13,1.42-6.5,3.5-12.87,5.15-18.79l-17.14-6.94c.17-.65.33-1.3.5-1.95l13-2c-12.3-10.78-17.71-22.78-12.94-38.79l21.66,10.88c-4.18-8.12-8.47-15.3-11.65-22.93-3.43-8.26-3.29-16.59,3.3-24.5,2.62,1.86,4.95,3.4,7.17,5.1,15.67,12,33.45,17.16,53.08,17.49,20.44.34,37.76,9.3,53.56,21.5a9.39,9.39,0,0,1,3.06,5.58c.64,4,.55,8.08.77,12.4,5.88,1.12,11.83,2.34,17.81,3.4,7.54,1.34,11.79,5.34,12.65,13.32,1.51,14,3.55,27.91,5.38,41.86.23,1.75.52,3.49.8,5.32,6.05-2.11,11.5-4.3,17.12-5.9s9.94.65,13.45,5c16.7,20.79,14.35,51.72-5.3,69.27-4.88,4.36-10.21,7.24-18.89,2.89,2-1.18,4.18-2.11,5.91-3.59,14.43-12.28,19.33-30.68,12.22-45.63-1.95-4.09-3.72-8.2-9.87-6.82-5.87,1.32-8.35,4.77-8.08,10.4s-1.8,9.74-6.56,12.86a6.6,6.6,0,0,0-2.39,4.92c.09,4.5.83,9,1.31,13.47l2.22.38,12.48-21.92c3.74,11.57-8.2,33.73-17.56,34.84,2.26,22.1-8.88,38.2-24.68,51.7-15.65,13.38-33.87,19.34-54.71,19.2C267,276.22,223,243.33,226.67,207.76Zm97.25-12.83c-9.67-.66-9.23-8.17-10.74-14.26a47.75,47.75,0,0,1-1.33-9c-.18-3.42-1.79-4.73-5.05-4.55a39,39,0,0,1-6.11,0c-4.65-.5-6.18,1.29-6.71,6.1-2.28,20.91-3.22,21.51-24.7,23.19-2,.15-4.67,1.13-5.6,2.62-4.31,6.87-8.39,13.93-12,21.19-2.53,5.07-1.51,10.28,1.38,15.17,7.31,12.37,17.54,21.68,30.82,26.84,24.34,9.45,45.89,2.37,64.59-13.85s18.69-24.19,12.86-47.38c-.48-1.93-2.91-4.73-4.54-4.81-9.81-.45-19.65-.22-29.86-.22,4.38,7.13,3.92,8.78-2.41,9.48-5.51.62-11,.87-18.17,1.41Zm43.82-50.09c3.47-11.21,1.12-20.25-8.75-26.44-7.69-4.83-16.19-8.54-24.66-11.88-9.62-3.8-18-1.09-24.53,7-2.23,2.78-4.49,5.54-6.74,8.31-3.18-3.73-5.93-7-8.73-10.22-5.39-6.19-12.42-8.53-19.9-5.79a204,204,0,0,0-27.66,12.62C238.6,123,236.24,130.92,237,140c.35,4.15,1.69,5.92,6.32,5.92,13.84,0,27.68.51,41.52.95,4.72.16,9.49.57,10.75,6.15,4.38,0,8.25.1,12.1-.05,1.24,0,3.33-.52,3.53-1.21,1.36-4.88,5.45-4.56,8.94-4.75C335.81,146.17,351.47,145.56,367.74,144.84Zm-22.27,9.41c-6.49.87-13.64,1.38-20.53,3-2.21.51-5.33,3.94-5.3,6A165.36,165.36,0,0,0,322,185.59a6.07,6.07,0,0,0,3.42,3.86c12.45,4.69,25.3,4.52,36.67-1.84,8.47-4.74,7.22-15.15,8.42-23.71.7-5-1.63-7.2-6.18-7.71C358.29,155.52,352.21,154.94,345.47,154.25Zm-83.75.28c-5.2.24-8.67.25-12.11.59-15,1.49-15.57,2.33-13.1,17.18,2.3,13.84,5.16,16.91,18.78,19a62.88,62.88,0,0,0,14,.74c13.25-.9,15.12-2.84,16.68-16,.4-3.43.41-6.9.77-10.34.61-5.9-2.34-8.7-7.89-9.33Z"/><path class="cls-3" d="M356.34,216.31c-9.44.79-11.15,8.8-14.87,14.75-4.93,7.89-11.43,13.09-21.11,13.63s-19.22,1.28-28.83,1.93l-.15-1.84c6.7-.71,13.39-1.79,20.11-2.06,15.24-.62,24.87-7.73,27.78-23.63l-4.63-2.72C342.29,214.05,348.9,211.77,356.34,216.31Z"/><path class="cls-3" d="M278.92,204.05c2.31-8.26,4.63-9.51,10.85-6,4.27,2.43,8.18,5.51,13.61,9.24Z"/><text class="cls-4" transform="translate(0 238.12)">C<tspan class="cls-5" x="27.47" y="0">r</tspan><tspan x="43.89" y="0">e</tspan><tspan class="cls-5" x="66.61" y="0">a</tspan><tspan x="89.45" y="0">ti</tspan><tspan class="cls-6" x="117.76" y="0">v</tspan><tspan x="141.13" y="0">e </tspan><tspan x="0" y="45.6" xml:space="preserve">        Chimp</tspan></text></g></g></svg>