<svg xmlns="http://www.w3.org/2000/svg" viewBox="0 0 60.62 77.54"><defs><style>.cls-1{fill:#e64755;}.cls-2{fill:#c6cc38;}.cls-3{fill:#432416;}.cls-4{fill:#9eb121;}.cls-5{font-size:20px;fill:#fff;font-family:MyriadPro-Regular, Myriad Pro;}</style></defs><title>logo</title><g id="Layer_2" data-name="Layer 2"><g id="Layer_1-2" data-name="Layer 1"><g id="Layer_2-2" data-name="Layer 2"><g id="Layer_1-2-2" data-name="Layer 1-2"><path class="cls-1" d="M18.53,17.69C11.4,17.42,4.42,21.87,1.8,27.54-1,33.78-.34,39.83,2.53,45.69c5.39,11,14.16,18.62,24.63,24.55,2.44,1.39,4.63,1.08,7-.22A61.56,61.56,0,0,0,52.16,55c5.21-6.45,9.56-13.3,8.22-22.36A17,17,0,0,0,57,24.29c-6.4-8.12-17.63-9-25.49-2.12-.81.71-1.25.85-2.11,0A16.21,16.21,0,0,0,18.53,17.69Z"/><path class="cls-1" d="M18.53,17.69a16.21,16.21,0,0,1,10.81,4.53c.86.8,1.3.66,2.11,0,7.86-6.9,19.09-6,25.49,2.12a17,17,0,0,1,3.44,8.31c1.34,9.06-3,15.91-8.22,22.36a61.56,61.56,0,0,1-18,15.06c-2.33,1.3-4.52,1.61-7,.22-10.47-6-19.24-13.63-24.63-24.6C-.34,39.83-1,33.78,1.8,27.54,4.42,21.87,11.4,17.42,18.53,17.69Z"/></g></g></g><g id="objects"><path class="cls-2" d="M47,18.17a6.26,6.26,0,0,0-3.79-5.75,5.35,5.35,0,0,0,.17-1.34,5.51,5.51,0,0,0-5.51-5.5,5.61,5.61,0,0,0-1.59.23,1.69,1.69,0,0,0,0-.23V5.43a5.43,5.43,0,0,0-10.86,0v.15c0,.13,0,.26,0,.39a5.3,5.3,0,0,0-1.6-.24,5.51,5.51,0,0,0-5.51,5.5,5.35,5.35,0,0,0,.17,1.34,6.27,6.27,0,0,0-.37,11.33,5.7,5.7,0,0,0-.4,2.11,5.81,5.81,0,0,0,8.74,5,4.67,4.67,0,0,0,8.81-.13,5.8,5.8,0,0,0,8.29-7.15A6.27,6.27,0,0,0,47,18.17"/><path class="cls-3" d="M42.1,26.5a1.86,1.86,0,0,1-1.63-1.11A1.82,1.82,0,0,1,41,23.3l.08-.07-.55-.63-.08.07a2.65,2.65,0,0,0-.7,3,2.61,2.61,0,0,0,.6.87,3.44,3.44,0,0,1-.56.86,3.25,3.25,0,0,1-1.87,1,3.31,3.31,0,0,1-2.78-.79,3,3,0,0,1-.3-.31h0v-.05l0-.1-.09,0a3.31,3.31,0,0,1-.48-3.13,2.14,2.14,0,0,0,.6-.21,2.63,2.63,0,0,0,1.35-1.52,2.72,2.72,0,0,0,.13-1.13v-.11l-.83.09v.1a1.71,1.71,0,0,1-.09.78,1.85,1.85,0,0,1-.93,1.05,1.83,1.83,0,0,1-2.62-1.68v-.11H31v.1a2.66,2.66,0,0,0,1.8,2.57,2.48,2.48,0,0,0,.54.12A4.12,4.12,0,0,0,34,27.73a3.28,3.28,0,0,1-2.7,3.6,3.38,3.38,0,0,1-1.38,0,3.78,3.78,0,0,1-2.43-3.13h0A4.12,4.12,0,0,0,30.24,23a4.06,4.06,0,0,0-.48-1,2.64,2.64,0,0,0,1.18-1.86A2.74,2.74,0,0,0,30.85,19l0-.1-.8.24,0,.1a1.73,1.73,0,0,1,.06.78,1.79,1.79,0,0,1-1.49,1.55,1.5,1.5,0,0,1-.56,0,1.8,1.8,0,0,1-1.55-1.49l0-.1-.82.14,0,.11a2.65,2.65,0,0,0,2.25,2.17,2.57,2.57,0,0,0,.83,0l.23-.05a3.42,3.42,0,0,1,.45.92,3.31,3.31,0,0,1-2.17,4.12l-.41.1a3.27,3.27,0,0,1-3.11-1.17,3.25,3.25,0,0,0,.13-.62A2.66,2.66,0,0,0,22.37,23l-.1-.05-.35.76.09,0a1.82,1.82,0,0,1,1,1.81,1.77,1.77,0,0,1-.65,1.24,1.71,1.71,0,0,1-.86.4A1.8,1.8,0,0,1,20.27,27l-.09-.05-.44.7.08.06a2.7,2.7,0,0,0,1.88.37A2.78,2.78,0,0,0,23,27.47a2.54,2.54,0,0,0,.39-.41,4.1,4.1,0,0,0,3.34,1.25,4.61,4.61,0,0,0,3,3.78l.3.06,0,24.39h2L31.68,32.1a4.13,4.13,0,0,0,3.06-3,4.65,4.65,0,0,0,.1-.56A4.11,4.11,0,0,0,40.37,28a4,4,0,0,0,.63-.93,2.5,2.5,0,0,0,1,.26h.1v-.1c0-.22,0-.43,0-.63V26.5Z"/><path class="cls-4" d="M21.24,12.76a4.37,4.37,0,0,1,4.37-4.37,4.68,4.68,0,0,1,1.07.13,4,4,0,1,0-5,6.11,4.32,4.32,0,0,1-.43-1.87"/><path class="cls-4" d="M28.19,4.63A4.34,4.34,0,0,1,35,5.48,3.89,3.89,0,0,0,33.89,3a4,4,0,0,0-6.72,3.3,4.43,4.43,0,0,1,1-1.64"/><path class="cls-4" d="M36.59,8.59A4.36,4.36,0,0,1,41,13,4.66,4.66,0,0,1,40.83,14a4,4,0,1,0-6.12-5,4.39,4.39,0,0,1,1.88-.42"/><text class="cls-5" transform="translate(15.49 56.07)"><tspan xml:space="preserve">K  G</tspan></text></g></g></svg>