<?xml version="1.0" encoding="utf-8"?>
<!-- Generator: Adobe Illustrator 22.0.1, SVG Export Plug-In . SVG Version: 6.00 Build 0)  -->
<svg version="1.1" id="Layer_1" xmlns="http://www.w3.org/2000/svg" xmlns:xlink="http://www.w3.org/1999/xlink" x="0px" y="0px"
	 viewBox="0 0 60.6 77.5" style="enable-background:new 0 0 60.6 77.5;" xml:space="preserve">
<style type="text/css">
	.st0{fill:#E64755;}
	.st1{fill:#C6CC38;}
	.st2{fill:#432416;}
	.st3{fill:#9EB121;}
	.st4{fill:#FFFFFF;}
	.st5{font-family:'ArialMT';}
	.st6{font-size:20px;}
</style>
<title>logo</title>
<g id="Layer_2_1_">
	<g id="Layer_1-2">
		<g id="Layer_2-2">
			<g id="Layer_1-2-2">
				<path class="st0" d="M18.5,17.7c-7.1-0.3-14.1,4.2-16.7,9.9C-1,33.8-0.3,39.8,2.5,45.7c5.4,11,14.2,18.6,24.6,24.5
					c2.4,1.4,4.6,1.1,7-0.2c6.9-3.8,13-8.9,18-15c5.2-6.5,9.6-13.3,8.2-22.4c-0.4-3-1.5-5.9-3.4-8.3c-6.4-8.1-17.6-9-25.5-2.1
					c-0.8,0.7-1.2,0.9-2.1,0C26.5,19.4,22.6,17.8,18.5,17.7z"/>
				<path class="st0" d="M18.5,17.7c4,0.1,7.9,1.7,10.8,4.5c0.9,0.8,1.3,0.7,2.1,0c7.9-6.9,19.1-6,25.5,2.1c1.9,2.4,3.1,5.3,3.4,8.3
					c1.3,9.1-3,15.9-8.2,22.4c-5,6.1-11.1,11.2-18,15.1c-2.3,1.3-4.5,1.6-7,0.2c-10.5-6-19.2-13.6-24.6-24.6
					C-0.3,39.8-1,33.8,1.8,27.5C4.4,21.9,11.4,17.4,18.5,17.7z"/>
			</g>
		</g>
	</g>
	<g id="objects">
		<path class="st1" d="M47,18.2c0-2.5-1.5-4.8-3.8-5.8c0.1-0.4,0.2-0.9,0.2-1.3c0-3-2.5-5.5-5.5-5.5c-0.5,0-1.1,0.1-1.6,0.2
			c0-0.1,0-0.2,0-0.2V5.4c0-3-2.4-5.4-5.4-5.4s-5.4,2.4-5.4,5.4v0.2c0,0.1,0,0.3,0,0.4c-0.5-0.2-1.1-0.2-1.6-0.2
			c-3,0-5.5,2.5-5.5,5.5c0,0.5,0.1,0.9,0.2,1.3c-3.2,1.4-4.6,5.1-3.3,8.2c0.6,1.3,1.6,2.4,2.9,3.1c-0.3,0.7-0.4,1.4-0.4,2.1
			c0,3.2,2.6,5.8,5.8,5.8c1,0,2-0.3,2.9-0.8c0.9,2.4,3.6,3.7,6,2.8c1.3-0.5,2.4-1.6,2.8-2.9c2.8,1.6,6.3,0.6,7.9-2.1
			c0.9-1.5,1-3.4,0.4-5C45.7,22.7,47,20.5,47,18.2"/>
		<path class="st2" d="M42.1,26.5c-0.7,0-1.3-0.5-1.6-1.1c-0.3-0.7-0.1-1.6,0.5-2.1l0.1-0.1l-0.5-0.6l-0.1,0.1c-0.9,0.7-1.1,2-0.7,3
			c0.1,0.3,0.3,0.6,0.6,0.9c-0.1,0.3-0.3,0.6-0.6,0.9c-0.5,0.5-1.2,0.9-1.9,1c-1,0.2-2-0.1-2.8-0.8c-0.1-0.1-0.2-0.2-0.3-0.3l0,0v0
			v-0.1h-0.1c-0.7-0.9-0.9-2.1-0.5-3.1c0.2,0,0.4-0.1,0.6-0.2c0.6-0.3,1.1-0.9,1.3-1.5c0.1-0.4,0.2-0.7,0.1-1.1v-0.1l-0.8,0.1v0.1
			c0,0.3,0,0.5-0.1,0.8c-0.2,0.5-0.5,0.8-0.9,1c-0.9,0.4-2,0.1-2.4-0.9c-0.1-0.3-0.2-0.5-0.2-0.8v-0.1H31v0.1c0,1.2,0.7,2.2,1.8,2.6
			c0.2,0.1,0.4,0.1,0.5,0.1c-0.4,1.3-0.1,2.6,0.7,3.7c0.2,1.7-1,3.3-2.7,3.6c-0.5,0.1-0.9,0.1-1.4,0c-1.3-0.5-2.3-1.7-2.4-3.1l0,0
			c2.2-0.6,3.4-2.9,2.8-5.1c0,0,0-0.1,0-0.1c-0.1-0.4-0.3-0.7-0.5-1c0.6-0.4,1.1-1.1,1.2-1.9c0.1-0.4,0-0.8-0.1-1.1v-0.1l-0.8,0.2
			v0.1c0.1,0.3,0.1,0.5,0.1,0.8c-0.1,0.8-0.7,1.4-1.5,1.5c-0.2,0-0.4,0-0.6,0c-0.8-0.1-1.4-0.7-1.5-1.5V20l-0.8,0.1v0.1
			c0.2,1.1,1.1,2,2.2,2.2c0.3,0,0.6,0,0.8,0l0.2,0c0.2,0.3,0.3,0.6,0.5,0.9c0.5,1.7-0.4,3.6-2.2,4.1l-0.4,0.1
			c-1.2,0.2-2.4-0.2-3.1-1.2c0.1-0.2,0.1-0.4,0.1-0.6c0.1-1.1-0.5-2.2-1.5-2.7l-0.1,0l-0.4,0.8H22c0.7,0.3,1.1,1.1,1,1.8
			c0,0.5-0.3,0.9-0.6,1.2c-0.2,0.2-0.5,0.4-0.9,0.4c-0.4,0.1-0.9,0-1.2-0.2l-0.1,0l-0.4,0.7l0.1,0.1c0.6,0.3,1.2,0.5,1.9,0.4
			c0.5-0.1,0.9-0.3,1.3-0.6c0.1-0.1,0.3-0.3,0.4-0.4c0.9,0.9,2.1,1.4,3.3,1.2c0.2,1.7,1.4,3.2,3,3.8l0.3,0.1v24.4h2l-0.3-24.4
			c1.5-0.4,2.7-1.5,3.1-3c0-0.2,0.1-0.4,0.1-0.6c1.7,1.3,4.1,1,5.5-0.5c0.3-0.3,0.5-0.6,0.6-0.9c0.3,0.2,0.7,0.2,1,0.3h0.1v-0.1
			c0-0.2,0-0.4,0-0.6V26.5z"/>
		<path class="st3" d="M21.2,12.8c0-2.4,2-4.4,4.4-4.4l0,0c0.4,0,0.7,0,1.1,0.1c-1.5-1.7-4-1.8-5.6-0.4s-1.8,4-0.4,5.6
			c0.3,0.3,0.6,0.6,1,0.8C21.4,14,21.3,13.4,21.2,12.8"/>
		<path class="st3" d="M28.2,4.6c1.7-1.7,4.4-1.7,6.1,0c0.3,0.3,0.5,0.5,0.7,0.9c-0.1-0.9-0.5-1.8-1.1-2.5c-1.6-1.5-4.1-1.4-5.7,0.2
			c-0.8,0.8-1.2,2-1.1,3.1C27.4,5.7,27.7,5.1,28.2,4.6"/>
		<path class="st3" d="M36.6,8.6c2.4,0,4.4,1.9,4.4,4.3c0,0,0,0.1,0,0.1c0,0.3-0.1,0.7-0.2,1c1.6-1.5,1.8-4,0.3-5.6
			c-1.5-1.6-4-1.8-5.6-0.3c-0.3,0.3-0.6,0.6-0.8,1C35.3,8.7,35.9,8.6,36.6,8.6"/>
		<text transform="matrix(1 0 0 1 11.49 56.0699)" class="st4 st5 st6">K  G</text>
	</g>
</g>
</svg>
