<?xml version="1.0" encoding="utf-8"?>
<!-- Generator: Adobe Illustrator 20.1.0, SVG Export Plug-In . SVG Version: 6.00 Build 0)  -->
<svg version="1.1" id="Laag_1" xmlns="http://www.w3.org/2000/svg" xmlns:xlink="http://www.w3.org/1999/xlink" x="0px" y="0px"
	 viewBox="0 0 375 245.7" style="enable-background:new 0 0 375 245.7;" xml:space="preserve">
<style type="text/css">
	.st0{opacity:0.7;fill:#EFEF30;}
	.st1{fill:url(#SVGID_1_);}
	.st2{opacity:0.26;fill:#20FF00;enable-background:new    ;}
</style>
<rect y="2" class="st0" width="375" height="245.7"/>
<title>wave</title>
<g id="Layer_2">
	<g id="Layer_1-2">
		<linearGradient id="SVGID_1_" gradientUnits="userSpaceOnUse" x1="187.5" y1="1.566833e-04" x2="187.5" y2="245.7099">
			<stop  offset="0" style="stop-color:#2CEB73"/>
			<stop  offset="1" style="stop-color:#00C2FC"/>
		</linearGradient>
		<path class="st1" d="M375,0H0v245c0,0,52.5-77.4,143.5-26.4s155.4,15.6,167,9c16.3-9.3,51.8-23.3,64.5-23.5V0z"/>
		<path class="st2" d="M0,164.2c0,0,44.5-13.1,79-13.1s82.5,14.9,115.5,30.6s55.8,20.3,89.5,15.4s61.8-9.9,91,3.6v31.5
			c0,0-55.3,21.5-115.5,0s-78.3-40-110-24.5S49,239.7,0,187.7V164.2z"/>
	</g>
</g>
</svg>
